<svg width="29" height="23" viewBox="0 0 29 23" fill="none" xmlns="http://www.w3.org/2000/svg">
<g clip-path="url(#clip0_202_270)">
<path d="M21.1458 4.3125C18.7896 4.3125 16.2521 4.69583 14.5 5.75C12.7479 4.69583 10.2104 4.3125 7.85415 4.3125C6.10206 4.3125 4.24123 4.52333 2.68248 5.06958C1.8004 5.38583 1.20831 6.06625 1.20831 6.8425V17.6525C1.20831 18.8983 2.68248 19.8183 4.20498 19.5117C5.38915 19.2721 6.64581 19.1667 7.85415 19.1667C9.73915 19.1667 11.745 19.4158 13.3641 20.0483C14.0891 20.3358 14.9108 20.3358 15.6237 20.0483C17.2429 19.4062 19.2487 19.1667 21.1337 19.1667C22.3421 19.1667 23.5987 19.2721 24.7829 19.5117C26.3054 19.8279 27.7796 18.9079 27.7796 17.6525V6.8425C27.7796 6.06625 27.1875 5.38583 26.3054 5.06958C24.7587 4.52333 22.8979 4.3125 21.1458 4.3125ZM25.375 16.5121C25.375 17.1158 24.6741 17.5567 23.925 17.4512C23.0187 17.3171 22.0762 17.2596 21.1458 17.2596C19.0916 17.2596 16.1312 17.8825 14.5 18.6971V7.66667C16.1312 6.85208 19.0916 6.22917 21.1458 6.22917C22.2575 6.22917 23.3571 6.31542 24.4083 6.4975C24.9641 6.59333 25.375 6.98625 25.375 7.43667V16.5121Z" fill="#7562E0"/>
<path d="M16.8925 10.5513C16.5058 10.5513 16.1554 10.3596 16.0346 10.0529C15.8775 9.67919 16.1433 9.26711 16.6146 9.15211C18.4754 8.67294 20.88 8.51961 23.0912 8.72086C23.5867 8.76877 23.9492 9.12336 23.8887 9.51627C23.8283 9.90919 23.3812 10.1967 22.8858 10.1488C20.9283 9.96669 18.7896 10.1104 17.1704 10.5225C17.0737 10.5321 16.9771 10.5513 16.8925 10.5513Z" fill="#7562E0"/>
<path d="M16.8925 13.1003C16.5058 13.1003 16.1554 12.9087 16.0346 12.602C15.8775 12.2283 16.1433 11.8162 16.6146 11.7012C18.4633 11.222 20.88 11.0687 23.0912 11.2699C23.5867 11.3178 23.9492 11.6724 23.8887 12.0653C23.8283 12.4583 23.3812 12.7458 22.8858 12.6978C20.9283 12.5158 18.7896 12.6595 17.1704 13.0716C17.0737 13.0908 16.9771 13.1003 16.8925 13.1003Z" fill="#7562E0"/>
<path d="M16.8925 15.6497C16.5058 15.6497 16.1554 15.458 16.0346 15.1513C15.8775 14.7776 16.1433 14.3655 16.6146 14.2505C18.4633 13.7713 20.88 13.618 23.0912 13.8192C23.5867 13.8672 23.9492 14.2217 23.8887 14.6147C23.8283 15.0076 23.3812 15.2855 22.8858 15.2472C20.9283 15.0651 18.7896 15.2088 17.1704 15.6209C17.0737 15.6401 16.9771 15.6497 16.8925 15.6497Z" fill="#7562E0"/>
</g>
<defs>
<clipPath id="clip0_202_270">
<rect width="29" height="23" fill="white"/>
</clipPath>
</defs>
</svg>
