<svg width="29" height="23" viewBox="0 0 29 23" fill="none" xmlns="http://www.w3.org/2000/svg">
<g clip-path="url(#clip0_202_285)">
<path d="M15.2854 15.0172C15.4546 14.6722 15.3458 14.2792 15.0075 14.0109L12.4821 12.0367L12.5183 12.008C14.6208 10.1488 16.1192 8.01175 17.0012 5.75008H19.3454C19.9979 5.75008 20.5417 5.31883 20.5417 4.80133V4.78216C20.5417 4.26466 19.9979 3.83341 19.3454 3.83341H12.0833V2.87508C12.0833 2.348 11.5396 1.91675 10.875 1.91675C10.2104 1.91675 9.66667 2.348 9.66667 2.87508V3.83341H2.40458C1.75208 3.83341 1.20833 4.26466 1.20833 4.78216C1.20833 5.30925 1.75208 5.73091 2.40458 5.73091H14.7054C13.8958 7.59008 12.615 9.34383 10.875 10.8772C9.89625 10.0242 9.07458 9.09466 8.38583 8.11716C8.1925 7.83925 7.84208 7.66675 7.44333 7.66675C6.60958 7.66675 6.07792 8.3855 6.48875 8.9605C7.25 10.0434 8.18042 11.0784 9.26792 12.0367L3.9875 16.1672C3.50417 16.5409 3.50417 17.1542 3.9875 17.528C4.45875 17.9017 5.22 17.9017 5.70333 17.528L10.875 13.4167L13.3158 15.3526C13.9321 15.8413 14.9833 15.6592 15.2854 15.0172V15.0172ZM21.1458 9.58341C20.4208 9.58341 19.7683 9.938 19.5146 10.4842L15.08 19.8759C14.79 20.4605 15.3458 21.0834 16.1312 21.0834C16.6025 21.0834 17.0254 20.8534 17.1946 20.4988L18.27 18.2084H24.0096L25.0971 20.4988C25.2663 20.8438 25.6892 21.0834 26.1604 21.0834C26.9458 21.0834 27.5017 20.4605 27.2238 19.8759L22.7892 10.4842C22.5233 9.938 21.8708 9.58341 21.1458 9.58341V9.58341ZM19.1883 16.2917L21.1458 12.1422L23.1033 16.2917H19.1883V16.2917Z" fill="#7562E0"/>
</g>
<defs>
<clipPath id="clip0_202_285">
<rect width="29" height="23" fill="white"/>
</clipPath>
</defs>
</svg>
