<svg width="296" height="30" viewBox="0 0 296 30" fill="none" xmlns="http://www.w3.org/2000/svg">
<path d="M17.144 2.456V22H13.224V13.684H4.852V22H0.932V2.456H4.852V10.492H13.224V2.456H17.144ZM35.4223 13.908C35.4223 14.468 35.385 14.972 35.3103 15.42H23.9703C24.0636 16.54 24.4556 17.4173 25.1463 18.052C25.837 18.6867 26.6863 19.004 27.6943 19.004C29.1503 19.004 30.1863 18.3787 30.8023 17.128H35.0303C34.5823 18.6213 33.7236 19.8533 32.4543 20.824C31.185 21.776 29.6263 22.252 27.7783 22.252C26.285 22.252 24.941 21.9253 23.7463 21.272C22.5703 20.6 21.6463 19.6573 20.9743 18.444C20.321 17.2307 19.9943 15.8307 19.9943 14.244C19.9943 12.6387 20.321 11.2293 20.9743 10.016C21.6276 8.80267 22.5423 7.86933 23.7183 7.216C24.8943 6.56267 26.2476 6.236 27.7783 6.236C29.253 6.236 30.569 6.55333 31.7263 7.188C32.9023 7.82267 33.8076 8.728 34.4423 9.904C35.0956 11.0613 35.4223 12.396 35.4223 13.908ZM31.3623 12.788C31.3436 11.78 30.9796 10.9773 30.2703 10.38C29.561 9.764 28.693 9.456 27.6663 9.456C26.6956 9.456 25.8743 9.75467 25.2023 10.352C24.549 10.9307 24.1476 11.7427 23.9983 12.788H31.3623ZM46.8796 6.264C48.7276 6.264 50.2209 6.852 51.3596 8.028C52.4982 9.18533 53.0676 10.8093 53.0676 12.9V22H49.1476V13.432C49.1476 12.2 48.8396 11.2573 48.2236 10.604C47.6076 9.932 46.7676 9.596 45.7036 9.596C44.6209 9.596 43.7622 9.932 43.1276 10.604C42.5116 11.2573 42.2036 12.2 42.2036 13.432V22H38.2836V6.488H42.2036V8.42C42.7262 7.748 43.3889 7.22533 44.1916 6.852C45.0129 6.46 45.9089 6.264 46.8796 6.264ZM60.7153 8.896C61.2193 8.07467 61.8726 7.43067 62.6753 6.964C63.4966 6.49733 64.4299 6.264 65.4753 6.264V10.38H64.4393C63.2073 10.38 62.2739 10.6693 61.6393 11.248C61.0233 11.8267 60.7153 12.8347 60.7153 14.272V22H56.7953V6.488H60.7153V8.896ZM70.1036 4.64C69.4129 4.64 68.8343 4.42533 68.3676 3.996C67.9196 3.548 67.6956 2.99733 67.6956 2.344C67.6956 1.69067 67.9196 1.14933 68.3676 0.719999C68.8343 0.271999 69.4129 0.0479989 70.1036 0.0479989C70.7943 0.0479989 71.3636 0.271999 71.8116 0.719999C72.2783 1.14933 72.5116 1.69067 72.5116 2.344C72.5116 2.99733 72.2783 3.548 71.8116 3.996C71.3636 4.42533 70.7943 4.64 70.1036 4.64ZM72.0356 6.488V22H68.1156V6.488H72.0356ZM74.9006 14.216C74.9006 12.6667 75.2179 11.2947 75.8526 10.1C76.5059 8.88667 77.3832 7.944 78.4846 7.272C79.5859 6.6 80.7992 6.264 82.1246 6.264C83.2259 6.264 84.1966 6.47867 85.0366 6.908C85.8952 7.31867 86.5859 7.85067 87.1086 8.504V6.488H91.0566V29.392H87.1086V19.872C86.5859 20.544 85.8859 21.104 85.0086 21.552C84.1312 22 83.1419 22.224 82.0406 22.224C80.7339 22.224 79.5299 21.888 78.4286 21.216C77.3459 20.5253 76.4872 19.5733 75.8526 18.36C75.2179 17.1467 74.9006 15.7653 74.9006 14.216ZM87.1086 14.244C87.1086 13.292 86.9126 12.4707 86.5206 11.78C86.1286 11.0893 85.6152 10.5667 84.9806 10.212C84.3646 9.85733 83.7019 9.68 82.9926 9.68C82.3019 9.68 81.6392 9.85733 81.0046 10.212C80.3886 10.5667 79.8846 11.0893 79.4926 11.78C79.1006 12.452 78.9046 13.264 78.9046 14.216C78.9046 15.168 79.1006 15.9987 79.4926 16.708C79.8846 17.3987 80.3886 17.9213 81.0046 18.276C81.6392 18.6307 82.3019 18.808 82.9926 18.808C83.7019 18.808 84.3646 18.6307 84.9806 18.276C85.6152 17.9213 86.1286 17.3987 86.5206 16.708C86.9126 16.0173 87.1086 15.196 87.1086 14.244ZM109.529 6.488V22H105.581V20.04C105.077 20.712 104.414 21.244 103.593 21.636C102.79 22.0093 101.913 22.196 100.961 22.196C99.7478 22.196 98.6745 21.944 97.7411 21.44C96.8078 20.9173 96.0705 20.1613 95.5291 19.172C95.0065 18.164 94.7451 16.9693 94.7451 15.588V6.488H98.6651V15.028C98.6651 16.26 98.9731 17.212 99.5891 17.884C100.205 18.5373 101.045 18.864 102.109 18.864C103.192 18.864 104.041 18.5373 104.657 17.884C105.273 17.212 105.581 16.26 105.581 15.028V6.488H109.529ZM127.817 13.908C127.817 14.468 127.78 14.972 127.705 15.42H116.365C116.458 16.54 116.85 17.4173 117.541 18.052C118.232 18.6867 119.081 19.004 120.089 19.004C121.545 19.004 122.581 18.3787 123.197 17.128H127.425C126.977 18.6213 126.118 19.8533 124.849 20.824C123.58 21.776 122.021 22.252 120.173 22.252C118.68 22.252 117.336 21.9253 116.141 21.272C114.965 20.6 114.041 19.6573 113.369 18.444C112.716 17.2307 112.389 15.8307 112.389 14.244C112.389 12.6387 112.716 11.2293 113.369 10.016C114.022 8.80267 114.937 7.86933 116.113 7.216C117.289 6.56267 118.642 6.236 120.173 6.236C121.648 6.236 122.964 6.55333 124.121 7.188C125.297 7.82267 126.202 8.728 126.837 9.904C127.49 11.0613 127.817 12.396 127.817 13.908ZM123.757 12.788C123.738 11.78 123.374 10.9773 122.665 10.38C121.956 9.764 121.088 9.456 120.061 9.456C119.09 9.456 118.269 9.75467 117.597 10.352C116.944 10.9307 116.542 11.7427 116.393 12.788H123.757ZM151.602 8.504C151.602 9.54933 151.35 10.5293 150.846 11.444C150.361 12.3587 149.586 13.096 148.522 13.656C147.477 14.216 146.151 14.496 144.546 14.496H141.27V22H137.35V2.456H144.546C146.058 2.456 147.346 2.71733 148.41 3.24C149.474 3.76267 150.267 4.48133 150.79 5.396C151.331 6.31067 151.602 7.34667 151.602 8.504ZM144.378 11.332C145.461 11.332 146.263 11.0893 146.786 10.604C147.309 10.1 147.57 9.4 147.57 8.504C147.57 6.6 146.506 5.648 144.378 5.648H141.27V11.332H144.378ZM175.309 8.504C175.309 9.54933 175.057 10.5293 174.553 11.444C174.068 12.3587 173.293 13.096 172.229 13.656C171.184 14.216 169.858 14.496 168.253 14.496H164.977V22H161.057V2.456H168.253C169.765 2.456 171.053 2.71733 172.117 3.24C173.181 3.76267 173.974 4.48133 174.497 5.396C175.038 6.31067 175.309 7.34667 175.309 8.504ZM168.085 11.332C169.168 11.332 169.97 11.0893 170.493 10.604C171.016 10.1 171.277 9.4 171.277 8.504C171.277 6.6 170.213 5.648 168.085 5.648H164.977V11.332H168.085ZM184.98 22.252C183.487 22.252 182.143 21.9253 180.948 21.272C179.753 20.6 178.811 19.6573 178.12 18.444C177.448 17.2307 177.112 15.8307 177.112 14.244C177.112 12.6573 177.457 11.2573 178.148 10.044C178.857 8.83067 179.819 7.89733 181.032 7.244C182.245 6.572 183.599 6.236 185.092 6.236C186.585 6.236 187.939 6.572 189.152 7.244C190.365 7.89733 191.317 8.83067 192.008 10.044C192.717 11.2573 193.072 12.6573 193.072 14.244C193.072 15.8307 192.708 17.2307 191.98 18.444C191.271 19.6573 190.3 20.6 189.068 21.272C187.855 21.9253 186.492 22.252 184.98 22.252ZM184.98 18.836C185.689 18.836 186.352 18.668 186.968 18.332C187.603 17.9773 188.107 17.4547 188.48 16.764C188.853 16.0733 189.04 15.2333 189.04 14.244C189.04 12.7693 188.648 11.64 187.864 10.856C187.099 10.0533 186.156 9.652 185.036 9.652C183.916 9.652 182.973 10.0533 182.208 10.856C181.461 11.64 181.088 12.7693 181.088 14.244C181.088 15.7187 181.452 16.8573 182.18 17.66C182.927 18.444 183.86 18.836 184.98 18.836ZM201.884 22.252C200.614 22.252 199.476 22.028 198.468 21.58C197.46 21.1133 196.657 20.488 196.06 19.704C195.481 18.92 195.164 18.052 195.108 17.1H199.056C199.13 17.6973 199.42 18.192 199.924 18.584C200.446 18.976 201.09 19.172 201.856 19.172C202.602 19.172 203.181 19.0227 203.592 18.724C204.021 18.4253 204.236 18.0427 204.236 17.576C204.236 17.072 203.974 16.6987 203.452 16.456C202.948 16.1947 202.136 15.9147 201.016 15.616C199.858 15.336 198.906 15.0467 198.16 14.748C197.432 14.4493 196.797 13.992 196.256 13.376C195.733 12.76 195.472 11.9293 195.472 10.884C195.472 10.0253 195.714 9.24133 196.2 8.532C196.704 7.82267 197.413 7.26267 198.328 6.852C199.261 6.44133 200.353 6.236 201.604 6.236C203.452 6.236 204.926 6.70267 206.028 7.636C207.129 8.55067 207.736 9.792 207.848 11.36H204.096C204.04 10.744 203.778 10.2587 203.312 9.904C202.864 9.53067 202.257 9.344 201.492 9.344C200.782 9.344 200.232 9.47467 199.84 9.736C199.466 9.99733 199.28 10.3613 199.28 10.828C199.28 11.3507 199.541 11.752 200.064 12.032C200.586 12.2933 201.398 12.564 202.5 12.844C203.62 13.124 204.544 13.4133 205.272 13.712C206 14.0107 206.625 14.4773 207.148 15.112C207.689 15.728 207.969 16.5493 207.988 17.576C207.988 18.472 207.736 19.2747 207.232 19.984C206.746 20.6933 206.037 21.2533 205.104 21.664C204.189 22.056 203.116 22.252 201.884 22.252ZM217.141 22.252C215.872 22.252 214.733 22.028 213.725 21.58C212.717 21.1133 211.915 20.488 211.317 19.704C210.739 18.92 210.421 18.052 210.365 17.1H214.313C214.388 17.6973 214.677 18.192 215.181 18.584C215.704 18.976 216.348 19.172 217.113 19.172C217.86 19.172 218.439 19.0227 218.849 18.724C219.279 18.4253 219.493 18.0427 219.493 17.576C219.493 17.072 219.232 16.6987 218.709 16.456C218.205 16.1947 217.393 15.9147 216.273 15.616C215.116 15.336 214.164 15.0467 213.417 14.748C212.689 14.4493 212.055 13.992 211.513 13.376C210.991 12.76 210.729 11.9293 210.729 10.884C210.729 10.0253 210.972 9.24133 211.457 8.532C211.961 7.82267 212.671 7.26267 213.585 6.852C214.519 6.44133 215.611 6.236 216.861 6.236C218.709 6.236 220.184 6.70267 221.285 7.636C222.387 8.55067 222.993 9.792 223.105 11.36H219.353C219.297 10.744 219.036 10.2587 218.569 9.904C218.121 9.53067 217.515 9.344 216.749 9.344C216.04 9.344 215.489 9.47467 215.097 9.736C214.724 9.99733 214.537 10.3613 214.537 10.828C214.537 11.3507 214.799 11.752 215.321 12.032C215.844 12.2933 216.656 12.564 217.757 12.844C218.877 13.124 219.801 13.4133 220.529 13.712C221.257 14.0107 221.883 14.4773 222.405 15.112C222.947 15.728 223.227 16.5493 223.245 17.576C223.245 18.472 222.993 19.2747 222.489 19.984C222.004 20.6933 221.295 21.2533 220.361 21.664C219.447 22.056 218.373 22.252 217.141 22.252ZM240.883 13.908C240.883 14.468 240.846 14.972 240.771 15.42H229.431C229.525 16.54 229.917 17.4173 230.607 18.052C231.298 18.6867 232.147 19.004 233.155 19.004C234.611 19.004 235.647 18.3787 236.263 17.128H240.491C240.043 18.6213 239.185 19.8533 237.915 20.824C236.646 21.776 235.087 22.252 233.239 22.252C231.746 22.252 230.402 21.9253 229.207 21.272C228.031 20.6 227.107 19.6573 226.435 18.444C225.782 17.2307 225.455 15.8307 225.455 14.244C225.455 12.6387 225.782 11.2293 226.435 10.016C227.089 8.80267 228.003 7.86933 229.179 7.216C230.355 6.56267 231.709 6.236 233.239 6.236C234.714 6.236 236.03 6.55333 237.187 7.188C238.363 7.82267 239.269 8.728 239.903 9.904C240.557 11.0613 240.883 12.396 240.883 13.908ZM236.823 12.788C236.805 11.78 236.441 10.9773 235.731 10.38C235.022 9.764 234.154 9.456 233.127 9.456C232.157 9.456 231.335 9.75467 230.663 10.352C230.01 10.9307 229.609 11.7427 229.459 12.788H236.823ZM247.665 8.756C248.169 8.00933 248.859 7.40267 249.737 6.936C250.633 6.46933 251.65 6.236 252.789 6.236C254.114 6.236 255.309 6.56267 256.373 7.216C257.455 7.86933 258.305 8.80267 258.921 10.016C259.555 11.2107 259.873 12.6013 259.873 14.188C259.873 15.7747 259.555 17.184 258.921 18.416C258.305 19.6293 257.455 20.572 256.373 21.244C255.309 21.916 254.114 22.252 252.789 22.252C251.631 22.252 250.614 22.028 249.737 21.58C248.878 21.1133 248.187 20.516 247.665 19.788V22H243.745V1.28H247.665V8.756ZM255.869 14.188C255.869 13.2547 255.673 12.452 255.281 11.78C254.907 11.0893 254.403 10.5667 253.769 10.212C253.153 9.85733 252.481 9.68 251.753 9.68C251.043 9.68 250.371 9.86667 249.737 10.24C249.121 10.5947 248.617 11.1173 248.225 11.808C247.851 12.4987 247.665 13.3107 247.665 14.244C247.665 15.1773 247.851 15.9893 248.225 16.68C248.617 17.3707 249.121 17.9027 249.737 18.276C250.371 18.6307 251.043 18.808 251.753 18.808C252.481 18.808 253.153 18.6213 253.769 18.248C254.403 17.8747 254.907 17.3427 255.281 16.652C255.673 15.9613 255.869 15.14 255.869 14.188ZM269.609 22.252C268.116 22.252 266.772 21.9253 265.577 21.272C264.382 20.6 263.44 19.6573 262.749 18.444C262.077 17.2307 261.741 15.8307 261.741 14.244C261.741 12.6573 262.086 11.2573 262.777 10.044C263.486 8.83067 264.448 7.89733 265.661 7.244C266.874 6.572 268.228 6.236 269.721 6.236C271.214 6.236 272.568 6.572 273.781 7.244C274.994 7.89733 275.946 8.83067 276.637 10.044C277.346 11.2573 277.701 12.6573 277.701 14.244C277.701 15.8307 277.337 17.2307 276.609 18.444C275.9 19.6573 274.929 20.6 273.697 21.272C272.484 21.9253 271.121 22.252 269.609 22.252ZM269.609 18.836C270.318 18.836 270.981 18.668 271.597 18.332C272.232 17.9773 272.736 17.4547 273.109 16.764C273.482 16.0733 273.669 15.2333 273.669 14.244C273.669 12.7693 273.277 11.64 272.493 10.856C271.728 10.0533 270.785 9.652 269.665 9.652C268.545 9.652 267.602 10.0533 266.837 10.856C266.09 11.64 265.717 12.7693 265.717 14.244C265.717 15.7187 266.081 16.8573 266.809 17.66C267.556 18.444 268.489 18.836 269.609 18.836ZM289.173 6.264C291.021 6.264 292.514 6.852 293.653 8.028C294.791 9.18533 295.361 10.8093 295.361 12.9V22H291.441V13.432C291.441 12.2 291.133 11.2573 290.517 10.604C289.901 9.932 289.061 9.596 287.997 9.596C286.914 9.596 286.055 9.932 285.421 10.604C284.805 11.2573 284.497 12.2 284.497 13.432V22H280.577V6.488H284.497V8.42C285.019 7.748 285.682 7.22533 286.485 6.852C287.306 6.46 288.202 6.264 289.173 6.264Z" fill="#7562E0"/>
</svg>
